<?xml version="1.0" encoding="UTF-8"?>
<svg width="1002px" height="200px" viewBox="0 0 1002 200" version="1.1" xmlns="http://www.w3.org/2000/svg" xmlns:xlink="http://www.w3.org/1999/xlink">
    <!-- Generator: Sketch 42 (36781) - http://www.bohemiancoding.com/sketch -->
    <title>MYX_logo_abyssblue</title>
    <desc>Created with Sketch.</desc>
    <defs>
        <linearGradient x1="49.9994189%" y1="20.0555999%" x2="49.9994189%" y2="100%" id="linearGradient-1">
            <stop stop-color="#141F33" offset="0%"></stop>
            <stop stop-color="#004DE6" offset="100%"></stop>
        </linearGradient>
    </defs>
    <g id="Official" stroke="none" stroke-width="1" fill="none" fill-rule="evenodd">
        <g id="MYX_logo_abyssblue">
            <g id="Triangle" fill="url(#linearGradient-1)">
                <path d="M55,90 C30,40 0,0 0,0 C0,0 40,19.9647503 100,20 C160,20.0352497 200,0.207938275 200,0.207938275 C200,0.207938275 170,40 145,90 C120,140 100,200 100,200 C100,200 80,140 55,90 Z M75,90.759132 C100,140 100,160 100,160 C100,160 100,140 125,90.759132 C150,41.5182644 167.987839,26.0153652 167.987839,26.0153652 C167.987839,26.0153652 140,40.0237346 100,39.9999997 C60,39.9762647 32.0125732,26.0153652 32.0125732,26.0153652 C32.0125732,26.0153652 50,41.5182644 75,90.759132 Z" id="Traingl&lt;3"></path>
            </g>
            <path d="M499.1,178.08 L522.64,178.08 L522.64,37.94 C522.64,28.7 515.16,21 505.7,21 L495.14,21 C488.76,21 481.72,24.3 477.54,29.14 L411.32,99.76 L345.1,29.14 C340.92,24.3 333.88,21 327.5,21 L317.16,21 C307.7,21 300,28.7 300,37.94 L300,178.08 L323.76,178.08 L323.76,44.54 L327.06,44.54 C327.28,44.76 327.28,44.76 327.5,44.76 L399.44,122.2 C402.52,125.72 406.92,127.92 411.32,127.92 C415.72,127.92 420.12,125.72 423.2,122.2 L495.14,44.76 C495.36,44.76 495.36,44.76 495.58,44.54 L499.1,44.54 L499.1,178.08 Z M723.28,21 L650.24,98 L577.2,21 L544.64,21 L638.36,120 L638.36,178.08 L662.12,178.08 L662.12,120 L755.84,21 L723.28,21 Z M777.84,178.08 L811.72,178.08 L876.4,116.04 L941.08,178.08 L974.74,178.08 L893.34,99.54 L974.74,21 L941.08,21 L876.4,83.04 L811.72,21 L777.84,21 L859.46,99.54 L777.84,178.08 Z" id="MYX" fill="#141F33"></path>
        </g>
    </g>
</svg>