<?xml version="1.0" encoding="UTF-8"?>
<svg width="320px" height="320px" viewBox="0 0 320 320" version="1.1" xmlns="http://www.w3.org/2000/svg" xmlns:xlink="http://www.w3.org/1999/xlink">
    <!-- Generator: Sketch 43.2 (39069) - http://www.bohemiancoding.com/sketch -->
    <title>space_rocket</title>
    <desc>Created with Sketch.</desc>
    <defs></defs>
    <g id="Icons" stroke="none" stroke-width="1" fill="none" fill-rule="evenodd">
        <g id="space_rocket">
            <path d="M10,84 C10,70.1928813 21.1902709,59 34.9976431,59 L285.002357,59 C298.808174,59 310,70.1898454 310,84 C310,97.8071187 298.809729,109 285.002357,109 L34.9976431,109 C21.1918261,109 10,97.8101546 10,84 Z M10,164 C10,150.192881 21.1902709,139 34.9976431,139 L285.002357,139 C298.808174,139 310,150.189845 310,164 C310,177.807119 298.809729,189 285.002357,189 L34.9976431,189 C21.1918261,189 10,177.810155 10,164 Z M10,244 C10,230.192881 21.1902709,219 34.9976431,219 L285.002357,219 C298.808174,219 310,230.189845 310,244 C310,257.807119 298.809729,269 285.002357,269 L34.9976431,269 C21.1918261,269 10,257.810155 10,244 Z" id="Combined-Shape" fill="#A3B4CC"></path>
            <g id="Space_Rocket" fill="#141F33">
                <polygon id="small_star" points="130.035037 14.2940365 124.451077 17.1856614 125.475637 10.9814387 121 6.5643386 127.217173 5.621543 130.035037 0 132.852901 5.621543 139.070074 6.5643386 134.594437 10.9814387 135.618997 17.1856614"></polygon>
                <polygon id="medium_star" points="169.535037 42.6671374 163.024026 46.038831 164.218684 38.8045811 159 33.6541523 166.24935 32.5548336 169.535037 26 172.820724 32.5548336 180.070074 33.6541523 174.85139 38.8045811 176.046048 46.038831"></polygon>
                <polygon id="big_star" points="94.5 43.8172135 85.977114 48.2307464 87.540916 38.7611433 80.709681 32.0192536 90.19905 30.5802499 94.5 22 98.80095 30.5802499 108.290319 32.0192536 101.459084 38.7611433 103.022886 48.2307464"></polygon>
                <path d="M56.4183571,310.316683 C56.4183571,310.316683 47.2051841,285.071816 42.9897237,272.532999 C38.7742634,259.994182 36.6273182,251.448566 36.6273182,251.448566 L36.6273182,272.532999 C36.6273182,272.532999 27.9797184,258.431828 24.7064796,251.448566 C21.4332408,244.465303 16.8394201,230.316683 16.8394201,230.316683 L95.956284,230.316683 C95.956284,230.316683 91.526549,244.360983 88.213414,251.448566 C84.9002797,258.536148 76.2220044,272.532999 76.2220044,272.532999 L76.2220044,251.448566 C76.2220044,251.448566 72.5138995,265.514414 70.1527985,272.532999 C67.7916974,279.551583 56.4183571,310.316683 56.4183571,310.316683 Z" id="flame" transform="translate(56.397852, 270.316683) rotate(45.000000) translate(-56.397852, -270.316683) "></path>
                <polygon id="rocket_steers" transform="translate(105.925667, 220.849549) rotate(45.000000) translate(-105.925667, -220.849549) " points="66.2046244 240.823642 145.645396 240.849549 175.425667 210.807879 165.483222 200.861811 46.3987313 200.849549 36.4256672 210.85549"></polygon>
                <path d="M183.635801,13.0678028 C183.635801,13.0678028 233.127768,47.4832406 243.151715,113.080728 C253.175663,178.678216 223.283365,273.067803 223.283365,273.067803 L143.98654,273.067803 C143.98654,273.067803 114.405737,177.390904 124.192612,113.080728 C133.979487,48.7705525 183.635801,13.0678028 183.635801,13.0678028 Z M183.707413,114.067803 C195.029251,114.067803 204.207413,104.88964 204.207413,93.5678028 C204.207413,82.2459654 195.029251,73.0678028 183.707413,73.0678028 C172.385576,73.0678028 163.207413,82.2459654 163.207413,93.5678028 C163.207413,104.88964 172.385576,114.067803 183.707413,114.067803 Z" id="rocket_body" transform="translate(183.707413, 143.067803) rotate(45.000000) translate(-183.707413, -143.067803) "></path>
            </g>
        </g>
    </g>
</svg>